<svg width="360" height="40" viewBox="0 0 360 40" fill="none" xmlns="http://www.w3.org/2000/svg">
<rect width="360" height="40" fill="#2B2B2B"/>
<path d="M24.66 23.36H29.14V26H21.24V11.96H24.66V23.36ZM35.8513 26.16C34.7579 26.16 33.7713 25.9267 32.8913 25.46C32.0246 24.9933 31.3379 24.3267 30.8313 23.46C30.3379 22.5933 30.0913 21.58 30.0913 20.42C30.0913 19.2733 30.3446 18.2667 30.8512 17.4C31.3579 16.52 32.0513 15.8467 32.9313 15.38C33.8113 14.9133 34.7979 14.68 35.8913 14.68C36.9846 14.68 37.9713 14.9133 38.8513 15.38C39.7313 15.8467 40.4246 16.52 40.9313 17.4C41.4379 18.2667 41.6913 19.2733 41.6913 20.42C41.6913 21.5667 41.4313 22.58 40.9113 23.46C40.4046 24.3267 39.7046 24.9933 38.8113 25.46C37.9313 25.9267 36.9446 26.16 35.8513 26.16ZM35.8513 23.2C36.5046 23.2 37.0579 22.96 37.5113 22.48C37.9779 22 38.2113 21.3133 38.2113 20.42C38.2113 19.5267 37.9846 18.84 37.5313 18.36C37.0913 17.88 36.5446 17.64 35.8913 17.64C35.2246 17.64 34.6713 17.88 34.2313 18.36C33.7913 18.8267 33.5713 19.5133 33.5713 20.42C33.5713 21.3133 33.7846 22 34.2113 22.48C34.6513 22.96 35.1979 23.2 35.8513 23.2ZM47.7456 14.68C48.5323 14.68 49.219 14.84 49.8056 15.16C50.4056 15.48 50.8656 15.9 51.1856 16.42V14.84H54.6056V25.98C54.6056 27.0067 54.399 27.9333 53.9856 28.76C53.5856 29.6 52.9656 30.2667 52.1256 30.76C51.299 31.2533 50.2656 31.5 49.0256 31.5C47.3723 31.5 46.0323 31.1067 45.0056 30.32C43.979 29.5467 43.3923 28.4933 43.2456 27.16H46.6256C46.7323 27.5867 46.9856 27.92 47.3856 28.16C47.7856 28.4133 48.279 28.54 48.8656 28.54C49.5723 28.54 50.1323 28.3333 50.5456 27.92C50.9723 27.52 51.1856 26.8733 51.1856 25.98V24.4C50.8523 24.92 50.3923 25.3467 49.8056 25.68C49.219 26 48.5323 26.16 47.7456 26.16C46.8256 26.16 45.9923 25.9267 45.2456 25.46C44.499 24.98 43.9056 24.3067 43.4656 23.44C43.039 22.56 42.8256 21.5467 42.8256 20.4C42.8256 19.2533 43.039 18.2467 43.4656 17.38C43.9056 16.5133 44.499 15.8467 45.2456 15.38C45.9923 14.9133 46.8256 14.68 47.7456 14.68ZM51.1856 20.42C51.1856 19.5667 50.9456 18.8933 50.4656 18.4C49.999 17.9067 49.4256 17.66 48.7456 17.66C48.0656 17.66 47.4856 17.9067 47.0056 18.4C46.539 18.88 46.3056 19.5467 46.3056 20.4C46.3056 21.2533 46.539 21.9333 47.0056 22.44C47.4856 22.9333 48.0656 23.18 48.7456 23.18C49.4256 23.18 49.999 22.9333 50.4656 22.44C50.9456 21.9467 51.1856 21.2733 51.1856 20.42ZM62.1598 26.16C61.0665 26.16 60.0798 25.9267 59.1998 25.46C58.3332 24.9933 57.6465 24.3267 57.1398 23.46C56.6465 22.5933 56.3998 21.58 56.3998 20.42C56.3998 19.2733 56.6532 18.2667 57.1598 17.4C57.6665 16.52 58.3598 15.8467 59.2398 15.38C60.1198 14.9133 61.1065 14.68 62.1998 14.68C63.2932 14.68 64.2798 14.9133 65.1598 15.38C66.0398 15.8467 66.7332 16.52 67.2398 17.4C67.7465 18.2667 67.9998 19.2733 67.9998 20.42C67.9998 21.5667 67.7398 22.58 67.2198 23.46C66.7132 24.3267 66.0132 24.9933 65.1198 25.46C64.2398 25.9267 63.2532 26.16 62.1598 26.16ZM62.1598 23.2C62.8132 23.2 63.3665 22.96 63.8198 22.48C64.2865 22 64.5198 21.3133 64.5198 20.42C64.5198 19.5267 64.2932 18.84 63.8398 18.36C63.3998 17.88 62.8532 17.64 62.1998 17.64C61.5332 17.64 60.9798 17.88 60.5398 18.36C60.0998 18.8267 59.8798 19.5133 59.8798 20.42C59.8798 21.3133 60.0932 22 60.5198 22.48C60.9598 22.96 61.5065 23.2 62.1598 23.2Z" fill="white"/>
<path d="M315 19H340" stroke="white" stroke-width="3.33333" stroke-linecap="round" stroke-linejoin="round"/>
<path d="M315 10.6667H340" stroke="white" stroke-width="3.33333" stroke-linecap="round" stroke-linejoin="round"/>
<path d="M315 27.3335H340" stroke="white" stroke-width="3.33333" stroke-linecap="round" stroke-linejoin="round"/>
</svg>
